# Blender v3.0.0 OBJ File: ''
# www.blender.org
mtllib heart.mtl
o Sphere_Sphere.001
v 1.567646 0.010414 0.048030
v 0.675451 1.472467 0.068862
v -0.127102 0.560499 -0.589966
v -1.160763 -0.383409 0.143574
v -0.182697 0.552393 0.416866
v -0.626414 -0.845842 0.166092
v 0.273418 1.296796 -0.232993
v -0.643468 1.391333 -0.319888
v 1.194813 1.428070 0.195705
v -1.763878 0.998491 0.013900
v -0.705987 -0.926864 -0.077549
v -1.607787 1.168725 -0.159604
v -1.173490 -0.425500 -0.005263
v 1.704051 0.778729 -0.234296
v -0.045364 0.956679 -0.513305
v 0.398995 0.715424 0.365294
v -0.790167 1.353819 0.214870
v 1.277461 1.525038 0.035552
v -1.510611 1.213978 0.180377
v 1.419211 1.478336 -0.096669
v 0.404115 -1.349077 -0.013775
v 0.615752 -1.169654 -0.198571
v 1.738762 0.305800 -0.054325
v 1.141769 0.502435 0.386966
v -1.149954 1.513935 0.045607
v 0.515547 -0.257449 -0.589555
v -1.188749 0.226646 0.371549
v 0.348269 1.184723 -0.382668
v -1.491428 0.759590 0.312160
v -0.701121 -0.048990 -0.452630
v -0.939504 -0.625583 -0.171951
v -1.492519 1.346538 0.027974
v -1.578568 0.214105 0.101723
v 0.240664 -1.306758 0.122097
v 1.265128 0.331387 -0.473983
v 0.081672 1.210317 -0.073036
v 0.640284 1.515492 -0.055344
v -0.223127 -0.796608 0.283483
v 0.774354 1.102477 0.296837
v -1.357275 0.059553 0.250808
v -0.773468 0.817119 0.422919
v 0.953097 1.518096 -0.217279
v 1.697568 1.044854 0.214225
v 0.937310 0.159665 -0.565697
v -0.078358 1.167724 -0.357027
v -1.709159 0.656177 0.166713
v -1.224925 1.309100 -0.246523
v -1.676588 0.523790 -0.106417
v -0.216702 -1.412939 -0.108405
v 1.512825 -0.021993 -0.206896
v -1.103077 -0.202369 -0.264072
v 0.987962 -0.389128 -0.479332
v -1.136164 1.520941 -0.082285
v -1.321085 0.644942 -0.380002
v 1.501497 0.982270 -0.328146
v 0.160999 -1.494859 -0.166933
v -0.298623 1.066777 -0.500932
v 0.855093 -0.767042 -0.330127
v 1.530594 1.359803 0.117291
v -0.247649 -0.833756 -0.472186
v -1.275093 1.017714 0.319639
v 0.205886 1.010145 0.188447
v 0.764823 -0.764909 0.181799
v -0.230444 0.986306 0.277764
v 0.972567 1.586394 -0.070889
v -0.237363 1.280451 0.027433
v -0.380457 -1.129542 -0.278408
v 1.751467 1.105155 -0.050778
v 1.334002 0.835319 0.387649
v -0.021612 -1.415748 -0.279673
v 1.741182 0.542856 0.236892
v 0.837065 0.957310 -0.459595
v 1.098994 1.359649 -0.299924
v 0.566459 0.228797 0.389946
v -0.074397 -1.381754 0.065670
v 1.232337 -0.462844 -0.086035
v 0.215374 -1.212756 -0.400955
v -0.458011 0.087292 0.439013
v -1.034075 1.027021 -0.445136
v 0.127807 -0.690637 -0.547195
v -0.888522 -0.344916 0.326391
v 0.380908 -0.701483 0.298334
v 1.824841 0.665434 0.062534
v -0.598211 1.517301 -0.116871
v 1.296476 -0.071689 0.245328
v 1.197444 -0.431724 0.084332
v -0.852363 1.542472 0.015673
v -0.738543 0.790353 -0.546201
vt 0.000000 0.000000
vt 0.000000 0.000000
vt 0.000000 0.000000
vt 0.000000 0.000000
vt 0.000000 0.000000
vt 0.000000 0.000000
vt 0.000000 0.000000
vt 0.000000 0.000000
vt 0.000000 0.000000
vt 0.000000 0.000000
vt 0.000000 0.000000
vt 0.000000 0.000000
vt 0.000000 0.000000
vt 0.000000 0.000000
vt 0.000000 0.000000
vt 0.000000 0.000000
vt 0.000000 0.000000
vt 0.000000 0.000000
vt 0.000000 0.000000
vt 0.000000 0.000000
vt 0.000000 0.000000
vt 0.000000 0.000000
vt 0.000000 0.000000
vt 0.000000 0.000000
vt 0.000000 0.000000
vt 0.000000 0.000000
vt 0.000000 0.000000
vt 0.000000 0.000000
vt 0.000000 0.000000
vt 0.000000 0.000000
vt 0.000000 0.000000
vt 0.000000 0.000000
vt 0.000000 0.000000
vt 0.000000 0.000000
vt 0.000000 0.000000
vt 0.000000 0.000000
vt 0.000000 0.000000
vt 0.000000 0.000000
vt 0.000000 0.000000
vt 0.000000 0.000000
vt 0.000000 0.000000
vt 0.000000 0.000000
vt 0.000000 0.000000
vt 0.000000 0.000000
vt 0.000000 0.000000
vt 0.000000 0.000000
vt 0.000000 0.000000
vt 0.000000 0.000000
vt 0.000000 0.000000
vt 0.000000 0.000000
vt 0.000000 0.000000
vt 0.000000 0.000000
vt 0.000000 0.000000
vt 0.000000 0.000000
vt 0.000000 0.000000
vt 0.000000 0.000000
vt 0.000000 0.000000
vt 0.000000 0.000000
vt 0.000000 0.000000
vt 0.000000 0.000000
vt 0.000000 0.000000
vt 0.000000 0.000000
vt 0.000000 0.000000
vt 0.000000 0.000000
vt 0.000000 0.000000
vt 0.000000 0.000000
vt 0.000000 0.000000
vt 0.000000 0.000000
vt 0.000000 0.000000
vt 0.000000 0.000000
vt 0.000000 0.000000
vt 0.000000 0.000000
vt 0.000000 0.000000
vt 0.000000 0.000000
vt 0.000000 0.000000
vt 0.000000 0.000000
vt 0.000000 0.000000
vt 0.000000 0.000000
vt 0.000000 0.000000
vt 0.000000 0.000000
vt 0.000000 0.000000
vt 0.000000 0.000000
vt 0.000000 0.000000
vt 0.000000 0.000000
vt 0.000000 0.000000
vt 0.000000 0.000000
vt 0.000000 0.000000
vt 0.000000 0.000000
vn -0.1173 -0.1393 0.9833
vn 0.7184 -0.5613 -0.4108
vn -0.0624 0.8344 0.5476
vn 0.2263 -0.3203 0.9199
vn -0.1580 -0.9414 0.2979
vn 0.6096 -0.4572 0.6476
vn -0.3641 0.9290 0.0658
vn 0.0871 0.1719 -0.9813
vn 0.1342 0.5730 0.8085
vn -0.6676 -0.2975 0.6825
vn 0.8649 -0.3928 0.3125
vn -0.2096 0.8965 -0.3904
vn 0.1941 -0.8458 0.4969
vn 0.1516 0.3168 0.9363
vn 0.3577 0.4429 -0.8221
vn -0.0791 -0.3654 0.9275
vn 0.0321 0.0247 -0.9992
vn -0.6317 -0.6500 0.4225
vn 0.0547 0.4235 -0.9042
vn -0.0910 0.4096 -0.9077
vn 0.4051 -0.4554 -0.7928
vn 0.4601 -0.5240 0.7167
vn -0.1319 0.4635 0.8762
vn -0.9844 -0.1725 -0.0338
vn -0.6523 -0.6299 -0.4216
vn -0.0061 0.9802 -0.1978
vn -0.0909 0.9949 0.0447
vn -0.0480 0.3597 0.9318
vn -0.0083 0.4564 -0.8897
vn 0.8091 0.5157 0.2819
vn -0.3299 0.2501 0.9103
vn -0.3351 0.3802 -0.8620
vn -0.7340 -0.4027 -0.5469
vn -0.7030 -0.4327 -0.5643
vn -0.0011 0.3052 0.9523
vn -0.2431 -0.9340 -0.2616
vn 0.4830 0.8480 0.2183
vn -0.0062 0.1712 -0.9852
vn -0.7320 0.5547 0.3956
vn -0.1683 0.4841 0.8587
vn -0.2208 0.7245 -0.6529
vn -0.6515 -0.6350 -0.4151
vn -0.1777 0.9132 0.3667
vn -0.6929 -0.4448 0.5675
vn -0.8255 -0.4707 -0.3116
vn 0.7500 -0.6063 0.2644
vn 0.5720 0.4229 -0.7029
vn 0.6358 0.3060 -0.7086
vn -0.0004 0.7260 0.6877
vn 0.2501 -0.1679 0.9536
vn -0.0074 0.8571 0.5151
vn -0.1542 0.0225 0.9878
vn -0.6582 0.2166 0.7210
vn -0.2327 0.3837 0.8936
vn -0.0518 0.2224 0.9736
vn 0.2863 0.4172 0.8625
vn -0.1139 -0.1151 -0.9868
vn 0.2461 0.6166 -0.7478
vn -0.4856 -0.1805 0.8553
vn 0.3249 0.6174 0.7165
vn -0.6253 -0.6562 0.4224
vn -0.3730 -0.2661 0.8889
vn 0.1891 -0.1356 -0.9725
vn 0.9449 0.2201 0.2423
vn -0.5003 0.7607 -0.4137
vn 0.3718 0.7292 0.5745
vn -0.2450 -0.1182 -0.9623
vn -0.3467 -0.2141 -0.9132
vn 0.0752 0.8087 0.5834
vn 0.3569 0.6103 0.7072
vn 0.9107 -0.0868 -0.4037
vn 0.1878 0.8803 -0.4357
vn -0.4485 0.7976 0.4033
vn -0.2599 0.8329 -0.4886
vn 0.9326 0.0641 -0.3550
vn -0.4749 0.8748 -0.0963
vn -0.1686 -0.0729 -0.9830
vn -0.7259 -0.6409 -0.2497
vn 0.0249 0.0328 0.9992
vn -0.5123 -0.6397 -0.5730
vn 0.2757 0.7881 -0.5504
vn 0.5530 0.8330 -0.0155
vn 0.2004 0.6310 -0.7494
vn 0.6420 -0.4661 -0.6088
vn 0.2244 0.6023 -0.7660
vn 0.0676 0.0737 0.9950
vn 0.5703 -0.8105 -0.1338
vn -0.9577 -0.2866 0.0247
vn 0.6123 -0.4340 0.6609
vn 0.7054 -0.6575 0.2646
vn -0.7561 0.0267 -0.6540
vn -0.8060 -0.5479 0.2239
vn 0.5643 -0.5535 0.6125
vn -0.0577 -0.0459 -0.9973
vn 0.4036 -0.6290 -0.6644
vn -0.1642 -0.0671 -0.9841
vn -0.4509 -0.3386 -0.8259
vn -0.5290 -0.6476 0.5484
vn -0.2116 -0.3966 0.8933
vn 0.3243 -0.1178 -0.9386
vn -0.3295 -0.4094 -0.8508
vn -0.4763 -0.3588 -0.8027
vn 0.0601 0.1390 -0.9885
vn 0.1911 0.1530 -0.9696
vn 0.0318 0.1836 -0.9825
vn 0.1763 -0.6484 -0.7406
vn -0.2859 0.0516 -0.9569
vn -0.4391 0.8984 0.0019
vn -0.4432 -0.4752 0.7601
vn 0.7283 -0.1964 -0.6565
vn 0.1852 -0.1881 0.9645
vn 0.7182 -0.5674 -0.4029
vn -0.4696 -0.1545 0.8692
vn 0.1601 -0.2412 -0.9572
vn 0.5190 -0.4638 0.7180
vn -0.2073 0.7305 -0.6507
vn -0.1599 0.1056 0.9815
vn -0.0956 -0.0194 0.9952
vn 0.6001 -0.1701 -0.7816
vn -0.7826 0.6142 -0.1014
vn 0.1082 -0.8466 0.5211
vn 0.5623 -0.2104 -0.7998
vn -0.3814 0.7194 0.5805
vn 0.2916 0.7441 0.6010
vn 0.3935 0.0756 0.9162
vn -0.0082 0.3063 0.9519
vn 0.1865 0.1498 -0.9710
vn 0.0627 -0.1102 0.9919
vn -0.4094 0.1543 -0.8992
vn -0.4282 0.6079 0.6687
vn 0.1413 0.9642 -0.2243
vn -0.2136 -0.3880 0.8966
vn 0.1339 0.3618 0.9226
vn -0.0882 0.2961 -0.9511
vn 0.4501 0.0365 -0.8923
vn 0.2495 -0.1461 0.9573
vn -0.6077 0.1975 0.7693
vn 0.4326 -0.5019 -0.7490
vn 0.2322 0.3486 0.9080
vn -0.1766 0.4840 -0.8571
vn 0.0570 -0.1091 0.9924
vn -0.1454 0.5457 0.8253
vn 0.0195 0.3578 -0.9336
vn 0.8689 0.0974 0.4854
vn -0.6382 -0.7248 0.2595
vn -0.2380 0.4626 0.8540
vn -0.0657 -0.1898 0.9796
vn 0.1779 0.2607 -0.9489
vn 0.7480 0.6633 -0.0219
vn 0.2288 0.9686 -0.0969
vn -0.3881 0.6607 -0.6425
vn 0.2911 0.7806 0.5531
vn -0.1849 0.6494 -0.7377
vn -0.0278 0.8522 -0.5225
vn 0.0610 0.6001 -0.7976
vn 0.2389 -0.2687 0.9331
vn -0.4715 -0.3995 0.7862
vn -0.0836 -0.2817 -0.9558
vn 0.0449 0.0210 0.9988
vn -0.0162 0.0450 0.9989
vn -0.0255 0.0127 0.9996
vn 0.7300 -0.6529 0.2021
vn 0.9254 -0.2977 0.2347
vn 0.8253 -0.5544 -0.1070
vn 0.8420 -0.5273 -0.1140
vn -0.6098 -0.0003 -0.7925
vn -0.5362 -0.2483 -0.8067
vn 0.0212 -0.2840 0.9586
vn 0.1581 -0.2353 -0.9590
vn 0.0030 -0.1725 0.9850
vn -0.3588 -0.1845 -0.9150
vn -0.1573 -0.3647 -0.9178
usemtl None
s off
f 81/1/1 78/2/1 27/3/1
f 58/4/2 76/5/2 22/6/2
f 9/7/3 65/8/3 2/9/3
f 82/10/4 34/11/4 63/12/4
f 56/13/5 75/14/5 49/15/5
f 1/16/6 85/17/6 86/18/6
f 36/19/7 7/20/7 45/21/7
f 15/22/8 44/23/8 3/24/8
f 16/25/9 62/26/9 64/27/9
f 46/28/10 33/29/10 40/30/10
f 23/31/11 71/32/11 1/16/11
f 42/33/12 37/34/12 65/8/12
f 21/35/13 34/11/13 56/13/13
f 41/36/14 5/37/14 64/27/14
f 55/38/15 73/39/15 20/40/15
f 38/41/16 75/14/16 34/11/16
f 26/42/17 3/24/17 44/23/17
f 11/43/18 6/44/18 13/45/18
f 28/46/19 72/47/19 15/22/19
f 8/48/20 57/49/20 79/50/20
f 52/51/21 58/4/21 77/52/21
f 21/35/22 63/12/22 34/11/22
f 61/53/23 17/54/23 19/55/23
f 48/56/24 46/28/24 10/57/24
f 11/43/25 67/58/25 49/15/25
f 53/59/26 87/60/26 84/61/26
f 87/60/27 53/59/27 25/62/27
f 41/36/28 17/54/28 61/53/28
f 42/33/29 73/39/29 28/46/29
f 43/63/30 68/64/30 59/65/30
f 61/53/31 19/55/31 29/66/31
f 47/67/32 79/50/32 12/68/32
f 13/45/33 51/69/33 31/70/33
f 51/69/34 13/45/34 48/56/34
f 5/37/35 16/25/35 64/27/35
f 70/71/36 56/13/36 49/15/36
f 18/72/37 59/65/37 20/40/37
f 3/24/38 88/73/38 57/49/38
f 19/55/39 32/74/39 10/57/39
f 2/9/40 39/75/40 9/7/40
f 7/20/41 42/33/41 28/46/41
f 67/58/42 11/43/42 31/70/42
f 65/8/43 37/34/43 2/9/43
f 40/30/44 33/29/44 4/76/44
f 48/56/45 13/45/45 33/29/45
f 86/18/46 76/5/46 1/16/46
f 68/64/47 55/38/47 20/40/47
f 55/38/48 68/64/48 14/77/48
f 17/54/49 87/60/49 25/62/49
f 85/17/50 71/32/50 24/78/50
f 9/7/51 18/72/51 65/8/51
f 29/66/52 27/3/52 41/36/52
f 46/28/53 19/55/53 10/57/53
f 62/26/54 16/25/54 39/75/54
f 16/25/55 69/79/55 39/75/55
f 59/65/56 9/7/56 43/63/56
f 30/80/57 88/73/57 3/24/57
f 20/40/58 73/39/58 42/33/58
f 29/66/59 46/28/59 27/3/59
f 64/27/60 66/81/60 17/54/60
f 6/44/61 11/43/61 49/15/61
f 81/1/62 27/3/62 40/30/62
f 44/23/63 52/51/63 26/42/63
f 43/63/64 83/82/64 68/64/64
f 12/68/65 32/74/65 53/59/65
f 87/60/66 17/54/66 84/61/66
f 54/83/67 88/73/67 30/80/67
f 54/83/68 30/80/68 51/69/68
f 36/19/69 64/27/69 62/26/69
f 66/81/70 64/27/70 36/19/70
f 23/31/71 14/77/71 83/82/71
f 42/33/72 65/8/72 20/40/72
f 37/34/73 36/19/73 2/9/73
f 37/34/74 42/33/74 7/20/74
f 68/64/75 83/82/75 14/77/75
f 7/20/76 36/19/76 37/34/76
f 60/84/77 30/80/77 80/85/77
f 11/43/78 13/45/78 31/70/78
f 41/36/79 78/2/79 5/37/79
f 49/15/80 67/58/80 70/71/80
f 84/61/81 45/21/81 8/48/81
f 84/61/82 66/81/82 45/21/82
f 57/49/83 8/48/83 45/21/83
f 52/51/84 50/86/84 58/4/84
f 57/49/85 45/21/85 15/22/85
f 5/37/86 74/87/86 16/25/86
f 22/6/87 21/35/87 56/13/87
f 46/28/88 48/56/88 33/29/88
f 1/16/89 71/32/89 85/17/89
f 86/18/90 22/6/90 76/5/90
f 12/68/91 48/56/91 10/57/91
f 13/45/92 4/76/92 33/29/92
f 63/12/93 21/35/93 86/18/93
f 3/24/94 26/42/94 80/85/94
f 77/52/95 22/6/95 56/13/95
f 80/85/96 30/80/96 3/24/96
f 60/84/97 67/58/97 51/69/97
f 49/15/98 75/14/98 6/44/98
f 81/1/99 6/44/99 38/41/99
f 52/51/100 44/23/100 35/88/100
f 67/58/101 60/84/101 70/71/101
f 51/69/102 67/58/102 31/70/102
f 15/22/103 72/47/103 44/23/103
f 35/88/104 44/23/104 72/47/104
f 15/22/105 3/24/105 57/49/105
f 56/13/106 70/71/106 77/52/106
f 88/73/107 54/83/107 79/50/107
f 53/59/108 32/74/108 25/62/108
f 6/44/109 81/1/109 4/76/109
f 23/31/110 50/86/110 14/77/110
f 82/10/111 85/17/111 24/78/111
f 58/4/112 50/86/112 76/5/112
f 27/3/113 46/28/113 40/30/113
f 52/51/114 77/52/114 80/85/114
f 85/17/115 63/12/115 86/18/115
f 28/46/116 15/22/116 7/20/116
f 61/53/117 29/66/117 41/36/117
f 41/36/118 27/3/118 78/2/118
f 50/86/119 35/88/119 14/77/119
f 12/68/120 10/57/120 32/74/120
f 34/11/121 75/14/121 56/13/121
f 50/86/122 52/51/122 35/88/122
f 19/55/123 25/62/123 32/74/123
f 9/7/124 59/65/124 18/72/124
f 69/79/125 71/32/125 43/63/125
f 9/7/126 39/75/126 69/79/126
f 72/47/127 55/38/127 35/88/127
f 74/87/128 78/2/128 82/10/128
f 12/68/129 79/50/129 54/83/129
f 36/19/130 62/26/130 2/9/130
f 36/19/131 45/21/131 66/81/131
f 6/44/132 75/14/132 38/41/132
f 64/27/133 17/54/133 41/36/133
f 79/50/134 57/49/134 88/73/134
f 55/38/135 14/77/135 35/88/135
f 24/78/136 71/32/136 69/79/136
f 29/66/137 19/55/137 46/28/137
f 77/52/138 58/4/138 22/6/138
f 43/63/139 9/7/139 69/79/139
f 79/50/140 47/67/140 8/48/140
f 74/87/141 82/10/141 24/78/141
f 25/62/142 19/55/142 17/54/142
f 73/39/143 72/47/143 28/46/143
f 83/82/144 43/63/144 71/32/144
f 13/45/145 6/44/145 4/76/145
f 2/9/146 62/26/146 39/75/146
f 38/41/147 78/2/147 81/1/147
f 55/38/148 72/47/148 73/39/148
f 68/64/149 20/40/149 59/65/149
f 20/40/150 65/8/150 18/72/150
f 47/67/151 12/68/151 53/59/151
f 84/61/152 17/54/152 66/81/152
f 8/48/153 47/67/153 53/59/153
f 53/59/154 84/61/154 8/48/154
f 45/21/155 7/20/155 15/22/155
f 85/17/156 82/10/156 63/12/156
f 40/30/157 4/76/157 81/1/157
f 77/52/158 60/84/158 80/85/158
f 78/2/159 74/87/159 5/37/159
f 74/87/160 24/78/160 16/25/160
f 24/78/161 69/79/161 16/25/161
f 22/6/162 86/18/162 21/35/162
f 23/31/163 83/82/163 71/32/163
f 1/16/164 76/5/164 50/86/164
f 1/16/165 50/86/165 23/31/165
f 12/68/166 54/83/166 48/56/166
f 51/69/167 48/56/167 54/83/167
f 34/11/168 82/10/168 38/41/168
f 26/42/169 52/51/169 80/85/169
f 82/10/170 78/2/170 38/41/170
f 60/84/171 51/69/171 30/80/171
f 70/71/172 60/84/172 77/52/172
