{
    "asset" : {
        "generator" : "Khronos glTF Blender I/O v1.7.33",
        "version" : "2.0"
    },
    "scene" : 0,
    "scenes" : [
        {
            "name" : "Scene",
            "nodes" : [
                0
            ]
        }
    ],
    "nodes" : [
        {
            "mesh" : 0,
            "name" : "Sphere"
        }
    ],
    "materials" : [
        {
            "doubleSided" : true,
            "name" : "Material.001",
            "pbrMetallicRoughness" : {}
        }
    ],
    "meshes" : [
        {
            "name" : "Sphere.001",
            "primitives" : [
                {
                    "attributes" : {
                        "POSITION" : 0,
                        "NORMAL" : 1,
                        "TEXCOORD_0" : 2
                    },
                    "indices" : 3,
                    "material" : 0
                }
            ]
        }
    ],
    "accessors" : [
        {
            "bufferView" : 0,
            "componentType" : 5126,
            "count" : 16848,
            "max" : [
                1.8117703199386597,
                1.5772978067398071,
                0.4353500306606293
            ],
            "min" : [
                -1.7474347352981567,
                -1.4851573705673218,
                -0.5866949558258057
            ],
            "type" : "VEC3"
        },
        {
            "bufferView" : 1,
            "componentType" : 5126,
            "count" : 16848,
            "type" : "VEC3"
        },
        {
            "bufferView" : 2,
            "componentType" : 5126,
            "count" : 16848,
            "type" : "VEC2"
        },
        {
            "bufferView" : 3,
            "componentType" : 5123,
            "count" : 25272,
            "type" : "SCALAR"
        }
    ],
    "bufferViews" : [
        {
            "buffer" : 0,
            "byteLength" : 202176,
            "byteOffset" : 0
        },
        {
            "buffer" : 0,
            "byteLength" : 202176,
            "byteOffset" : 202176
        },
        {
            "buffer" : 0,
            "byteLength" : 134784,
            "byteOffset" : 404352
        },
        {
            "buffer" : 0,
            "byteLength" : 50544,
            "byteOffset" : 539136
        }
    ],
    "buffers" : [
        {
            "byteLength" : 589680,
            "uri" : "data:application/octet-stream;base64,"
        }
    ]
}
